<svg xmlns="http://www.w3.org/2000/svg" xmlns:xlink="http://www.w3.org/1999/xlink" width="256" height="256" fill="none"><rect width="256" height="256" fill="#242938" rx="60"/><mask id="a" width="146" height="200" x="55" y="28" maskUnits="userSpaceOnUse" style="mask-type:alpha"><path fill="#fff" d="M182.035 72.67a4.582 4.582 0 0 0-3.115-3.597 4.605 4.605 0 0 0-4.64 1.097l-23.605 23.748-18.702-35.338a4.453 4.453 0 0 0-3.991-2.472 4.453 4.453 0 0 0-3.991 2.472l-10.149 19.317L88.184 30.4c-2.052-3.863-7.868-2.84-8.552 1.478L55 189.365l66.026 36.929a13.905 13.905 0 0 0 13.342 0l66.596-36.929L182.035 72.67Z"/></mask><g mask="url(#a)"><path fill="url(#b)" d="M182.035 72.67a4.582 4.582 0 0 0-3.115-3.597 4.605 4.605 0 0 0-4.64 1.097l-23.605 23.748-18.702-35.338a4.453 4.453 0 0 0-3.991-2.472 4.453 4.453 0 0 0-3.991 2.472l-10.149 19.317L88.184 30.4c-2.052-3.863-7.868-2.84-8.552 1.478L55 189.365l66.026 36.929a13.905 13.905 0 0 0 13.342 0l66.596-36.929L182.035 72.67Z"/><path fill="#FFA000" d="M55 189.366 79.746 31.877c.684-4.317 6.5-5.34 8.552-1.477l25.544 47.497 10.149-19.317a4.564 4.564 0 0 1 4.048-2.45c1.703 0 3.264.944 4.048 2.45l68.877 130.786H55Z"/><path fill="url(#c)" d="M45.877 67.784h99.21v126.127h-99.21z"/><path fill="#F57C00" d="m140.298 128.007-26.57-50.11L55 189.366l85.298-61.359Z"/><path fill="url(#d)" d="M50.439 58.694h159.649v174.988H50.439z"/><path fill="#FFCA28" d="M200.965 189.366 182.035 72.67a4.579 4.579 0 0 0-3.115-3.597 4.603 4.603 0 0 0-4.639 1.097L55.001 189.366l66.026 36.93a13.91 13.91 0 0 0 13.342 0l66.596-36.93Z"/><path fill="#fff" fill-opacity=".2" d="M182.035 72.67a4.58 4.58 0 0 0-3.115-3.597 4.603 4.603 0 0 0-4.639 1.097l-23.606 23.748-18.701-35.338a4.453 4.453 0 0 0-3.991-2.472 4.453 4.453 0 0 0-3.992 2.472l-10.149 19.317L88.184 30.4c-2.052-3.863-7.868-2.84-8.552 1.478L55 189.365h-.114l.114.114.684.341 94.877-94.766 23.72-23.635a4.603 4.603 0 0 1 4.639-1.097 4.58 4.58 0 0 1 3.115 3.597l18.702 115.56.228-.114-18.93-116.696ZM55.228 189.139 79.746 33.014c.684-4.318 6.5-5.34 8.552-1.477l25.544 47.496 10.149-19.317a4.565 4.565 0 0 1 4.049-2.45c1.702 0 3.263.945 4.048 2.45l18.245 34.543-95.105 94.88Z"/><path fill="#A52714" d="M134.368 225.159a13.905 13.905 0 0 1-13.342 0l-65.912-36.815-.114 1.022 66.026 36.929a13.905 13.905 0 0 0 13.342 0l66.596-36.929-.114-1.022-66.482 36.815Z" opacity=".2"/><path fill="url(#e)" d="M182.035 72.67a4.582 4.582 0 0 0-3.115-3.597 4.605 4.605 0 0 0-4.64 1.097l-23.605 23.748-18.702-35.338a4.453 4.453 0 0 0-3.991-2.472 4.453 4.453 0 0 0-3.991 2.472l-10.149 19.317L88.184 30.4c-2.052-3.863-7.868-2.84-8.552 1.478L55 189.365l66.026 36.929a13.905 13.905 0 0 0 13.342 0l66.596-36.929L182.035 72.67Z"/></g><defs><linearGradient id="b" x1="49.918" x2="231.544" y1="62.053" y2="158.45" gradientUnits="userSpaceOnUse"><stop stop-color="#fff" stop-opacity=".1"/><stop offset="1" stop-color="#fff" stop-opacity="0"/></linearGradient><linearGradient id="e" x1="49.918" x2="231.544" y1="62.053" y2="158.45" gradientUnits="userSpaceOnUse"><stop stop-color="#fff" stop-opacity=".1"/><stop offset="1" stop-color="#fff" stop-opacity="0"/></linearGradient><pattern id="c" width="1" height="1" patternContentUnits="objectBoundingBox"><use transform="scale(.0115 .00893)" xlink:href="#f"/></pattern><pattern id="d" width="1" height="1" patternContentUnits="objectBoundingBox"><use transform="scale(.00714 .00645)" xlink:href="#g"/></pattern></defs></svg>